<mxfile host="app.diagrams.net" modified="2024-02-14T21:36:18.682Z" agent="Mozilla/5.0 (Windows NT 10.0; Win64; x64) AppleWebKit/537.36 (KHTML, like Gecko) Chrome/121.0.0.0 Safari/537.36" version="23.1.4" etag="x9D7xh59LslWMRJLIIKZ" type="github">
  <diagram name="Page-1" id="LZiZzmtzhhhqddi7at9x">
    <mxGraphModel>
      <root>
        <mxCell id="0" />
        <mxCell id="1" parent="0" />
      </root>
    </mxGraphModel>
  </diagram>
</mxfile>
